<svg width="79" height="12" viewBox="0 0 79 12" fill="none" xmlns="http://www.w3.org/2000/svg">
    <g clip-path="url(#jv8dh9tbaa)" fill="#FF5519">
        <path d="M.077 7.63h1.385c.042 0 .073.036.073.076-.04 1.582.935 2.392 2.216 2.392 1.477 0 2.096-.458 2.14-1.307.051-.97-.49-1.497-2.153-1.82C1.685 6.594.254 5.745.343 4.059c.07-1.363 1.207-2.346 3.631-2.346 2.73 0 3.273 2.126 3.33 3.242a.073.073 0 0 1-.072.074l-1.385.011c-.04 0-.07-.03-.073-.07-.04-1.076-.486-2.005-1.866-2.005-1.26 0-2.04.405-2.079 1.147-.044.836.666 1.267 1.98 1.51 2.454.457 3.697 1.536 3.615 3.127-.073 1.402-.9 2.67-3.744 2.67C1.272 11.42-.069 9.682.002 7.703c0-.04.036-.072.075-.072zM8.19 6.552c0-2.709 2.193-4.92 4.89-4.92 2.695 0 4.902 2.211 4.902 4.92 0 2.71-2.207 4.948-4.903 4.948-2.696 0-4.89-2.212-4.89-4.948zm8.182 0c0-1.914-1.123-3.45-3.293-3.45s-3.277 1.536-3.277 3.45c0 1.915 1.11 3.478 3.277 3.478 2.168 0 3.293-1.536 3.293-3.478zM24.27 10.369c-.135.552-.65.918-1.232.918h-1.53c-.582 0-1.097-.364-1.232-.918l-2.028-8.432a.073.073 0 0 1 .07-.09h1.436c.033 0 .064.022.07.055l1.958 8.148c.026.114.13.195.248.195h.49c.12 0 .222-.08.248-.195l1.962-8.146a.073.073 0 0 1 .07-.055h1.42c.047 0 .082.044.071.09l-2.023 8.432.002-.002zM28.324 7.32a.257.257 0 0 0-.257.271c.051 1.11.473 2.32 2.84 2.32 1.61 0 2.565-.52 2.766-1.571a.073.073 0 0 1 .071-.06h1.413c.045 0 .08.042.074.086-.284 1.965-2.08 2.976-4.324 2.976-4.01 0-4.538-2.86-4.538-4.464 0-3.45 1.694-5.068 4.538-5.068 2.844 0 4.49 1.597 4.512 5.438 0 .04-.034.075-.073.075h-7.02l-.002-.002zm2.583-4.11c-1.867 0-2.632.924-2.809 2.636a.254.254 0 0 0 .254.275h5.012c.15 0 .27-.128.254-.275-.168-1.712-.847-2.637-2.713-2.637M52.921 5.771v5.44c0 .04-.033.075-.075.075h-1.438a.076.076 0 0 1-.075-.074v-5.44c0-1.874-1.084-2.616-2.6-2.616-2.06 0-2.953 1.226-2.953 2.615v5.44c0 .04-.033.075-.075.075H44.28a.076.076 0 0 1-.075-.074v-5.44c0-1.874-.811-2.616-2.6-2.616-2.073 0-2.953 1.226-2.953 2.615v5.44c0 .04-.033.075-.073.075H37.14a.074.074 0 0 1-.073-.074V3.229a.074.074 0 0 0-.075-.073h-1.03a.073.073 0 0 1-.073-.072V1.922c0-.04.033-.075.073-.075h1.234c.805 0 1.455.65 1.455 1.448 0 .08.106.101.142.03.435-.882 1.324-1.478 2.879-1.478 2.18 0 3.315.746 3.806 2.005.024.064.113.064.14 0 .44-1.09 1.58-2.005 3.193-2.005 2.736 0 4.105 1.552 4.105 3.924M55.975 7.32a.257.257 0 0 0-.256.271c.05 1.11.473 2.32 2.84 2.32 1.61 0 2.565-.52 2.766-1.571a.073.073 0 0 1 .07-.06h1.414c.044 0 .08.042.073.086-.283 1.965-2.079 2.976-4.324 2.976-4.01 0-4.538-2.86-4.538-4.464 0-3.45 1.694-5.068 4.538-5.068 2.845 0 4.49 1.597 4.512 5.438 0 .04-.033.075-.073.075h-7.02l-.002-.002zm2.583-4.11c-1.866 0-2.631.924-2.808 2.636a.254.254 0 0 0 .254.275h5.012c.15 0 .27-.128.254-.275-.168-1.712-.847-2.637-2.714-2.637M73.066 5.771v5.439a.074.074 0 0 1-.075.074h-1.475a.074.074 0 0 1-.075-.075V5.772c0-1.78-1.03-2.615-2.41-2.615-2.195 0-3.009 1.226-3.009 2.615v5.439a.074.074 0 0 1-.075.074h-1.475a.074.074 0 0 1-.075-.075V3.232a.074.074 0 0 0-.075-.075h-1.069a.074.074 0 0 1-.075-.074v-1.16c0-.042.033-.075.075-.075h1.314c.805 0 1.458.65 1.458 1.45 0 .08.106.104.143.031.447-.882 1.391-1.481 2.946-1.481 2.37 0 3.957 1.32 3.957 3.924M79 10.01v1.202c0 .04-.033.072-.073.072h-2.88a1.38 1.38 0 0 1-1.382-1.375V3.095a.073.073 0 0 0-.073-.073H73.31v-1.1c0-.04.033-.073.072-.073h1.208c.04 0 .073-.033.073-.072V.573c0-.04.033-.073.073-.073h1.44c.04 0 .073.033.073.073v1.201c0 .04.033.073.073.073h2.406v1.1c0 .04-.033.073-.073.073h-2.333a.073.073 0 0 0-.073.073v6.77c0 .04.033.072.073.072h2.603c.04 0 .073.033.073.073"/>
    </g>
    <defs>
        <clipPath id="jv8dh9tbaa">
            <path fill="#fff" transform="translate(0 .5)" d="M0 0h79v11H0z"/>
        </clipPath>
    </defs>
</svg>
