<svg width="63" height="18" viewBox="0 0 63 18" fill="none" xmlns="http://www.w3.org/2000/svg">
    <g clip-path="url(#3nbk0a7eqa)">
        <path d="M1.31 5.405C1.988 1.593 4.718 0 7.573 0c2.855 0 4.998 1.593 4.318 5.405l-1.183 6.636c-.68 3.812-3.39 5.405-6.246 5.405-2.855 0-5.016-1.593-4.337-5.405L1.31 5.405zm2.61 6.636c-.238 1.33.455 1.674 1.25 1.674.796 0 1.591-.343 1.829-1.674l1.172-6.575c.238-1.331-.435-1.674-1.23-1.674-.796 0-1.612.343-1.848 1.674L3.92 12.04H3.92zm8.316 5.284c.154-.746.4-1.896.643-3.267-.612 0-1.207.02-1.801.04l.748-4.195 1.804.06.527-3.09c-.612 0-1.223 0-1.785-.036l.72-4.034 1.783.061.417-2.682h3.875c-.58 2.682-2.6 13.896-3.056 17.143h-3.875zM17.984 13.681c5.826-1.968 7.452-5.755 8.166-9.869-1.913-.02-3.622-.052-5.195-.032l.678-3.397c1.825.06 7.147.06 9.014 0-1.213 7.947-3.172 14.703-11.695 16.981l-.968-3.684v.001zm11.042 3.644c.698-3.227 2.7-14.46 3.057-17.143h3.875c-.581 2.682-2.6 13.896-3.057 17.143h-3.875zM47.93 9.278c.09-.504.204-1.029.321-1.573-3.712 1.028-9.303 1.512-12.142 1.532A224.903 224.903 0 0 0 37.687.383c3.795.035 6.786.035 10.013 0l-.6 3.369h-6.261L40.5 5.647c2.203 0 5.622-.302 8.31-.968.29-1.633.554-3.227.74-4.497h3.876l-.532 2.642c.881-.02 1.369.015 2.049.015l-.635 3.837c-.422-.04-1.23-.08-2.083-.1l-.42 2.702H47.93zm-12.544 8.027c.524-2.602.924-4.84 1.298-7.281 4.398.04 10.392.04 15.295 0-.474 2.32-.899 4.7-1.298 7.281-4.908-.04-10.78-.04-15.295 0zm11.58-2.783.324-1.856h-6.852l-.324 1.856h6.852z" fill="#1A1A1A"/>
        <path d="M58.184 10.379v.008c-2.144-.01-3.917 1.723-3.868 3.895.042 1.892 1.528 3.494 3.431 3.695 2.231.238 4.169-1.434 4.267-3.617l.51-3.744a.355.355 0 0 0-.37-.401l-3.972.164h.002z" fill="#FF5519"/>
    </g>
    <defs>
        <clipPath id="3nbk0a7eqa">
            <path fill="#fff" d="M0 0h62.526v18H0z"/>
        </clipPath>
    </defs>
</svg>
