<svg width="92" height="18" viewBox="0 0 92 18" fill="none" xmlns="http://www.w3.org/2000/svg">
    <g clip-path="url(#60uxr9z38a)" fill="#FF5519">
        <path d="M4.49 13.516a4.474 4.474 0 0 1-3.176-1.317 4.516 4.516 0 0 1 0-6.368l4.505-4.515A4.455 4.455 0 0 1 8.995 0c1.202 0 2.314.46 3.159 1.297.01.01.01.027 0 .037L9.387 4.108c-.009.01-.024.009-.034 0a.53.53 0 0 0-.358-.136.527.527 0 0 0-.374.152l-4.47 4.48c-.166.166-.239.42-.141.633.156.34.59.398.839.17.01-.009.023-.009.033 0l2.767 2.774c.01.01.01.027 0 .037a4.475 4.475 0 0 1-3.158 1.298"/>
        <path d="M6.755 18a4.455 4.455 0 0 1-3.159-1.298.027.027 0 0 1 0-.037l2.768-2.773c.009-.01.024-.008.033 0a.528.528 0 0 0 .358.136c.083 0 .242-.02.374-.152l4.473-4.482c.165-.166.237-.42.138-.633a.533.533 0 0 0-.839-.168.024.024 0 0 1-.033 0L8.101 5.82a.027.027 0 0 1 0-.038 4.49 4.49 0 0 1 6.335.02 4.516 4.516 0 0 1 0 6.367l-4.505 4.515A4.456 4.456 0 0 1 6.754 18"/>
    </g>
    <path d="M23.75 6.703v4.594c0 3.463 2.84 5.61 6.303 5.61 3.44 0 6.303-2.146 6.303-5.61V6.703c0-3.44-2.863-5.61-6.303-5.61-3.463 0-6.303 2.17-6.303 5.61zm2.678-.185c0-1.916 1.709-3.024 3.625-3.024 1.94 0 3.625 1.108 3.625 3.024v4.94c0 1.94-1.686 3.025-3.625 3.025-1.916 0-3.625-1.085-3.625-3.024V6.518zm11.36.485h3.417v2.655h-3.417v2.401h3.417V17h2.7V1h-2.7v3.602h-3.417v2.4zM46.861 3.747h9.512l-2.47 13.022h2.84l3.001-15.538H46.861v2.516zM64.293 17h2.7V1h-2.7v16zM70.157 16.77h19.232V8.572H70.157v8.196zm-.231-9.12h14.66V5.247H72.628V3.632h11.96V1.231H69.926v6.418zm2.932 3.324h13.83v3.417h-13.83v-3.417zm13.83-3.325h2.701V5.525h2.263V3.078h-2.263V1h-2.701v6.65z" fill="#FF5519"/>
    <defs>
        <clipPath id="60uxr9z38a">
            <path fill="#fff" d="M0 0h15.75v18H0z"/>
        </clipPath>
    </defs>
</svg>
