<svg width="54" height="61" viewBox="0 0 54 61" fill="none" xmlns="http://www.w3.org/2000/svg">
    <g clip-path="url(#q6juy683ua)" fill="#FF5519">
        <path d="M15.612 45.804a15 15 0 0 1-10.69-4.463c-5.894-5.95-5.894-15.632 0-21.58l15.16-15.302A14.938 14.938 0 0 1 30.77 0c4.045 0 7.785 1.56 10.628 4.396a.091.091 0 0 1 0 .126l-9.31 9.4c-.03.032-.082.028-.114 0-.434-.4-.936-.46-1.204-.46-.28 0-.816.066-1.26.515L14.466 29.158c-.557.563-.802 1.424-.473 2.146.525 1.154 1.985 1.348 2.822.576a.08.08 0 0 1 .112 0l9.313 9.4a.091.091 0 0 1 0 .126 15.003 15.003 0 0 1-10.629 4.4"/>
        <path d="M23.23 61a14.94 14.94 0 0 1-10.628-4.398.09.09 0 0 1 0-.126l9.312-9.398c.03-.032.082-.029.114 0 .434.4.934.46 1.202.46.28 0 .816-.066 1.26-.515l15.05-15.189c.557-.562.799-1.424.466-2.144-.532-1.152-1.987-1.336-2.822-.568a.08.08 0 0 1-.112 0l-9.31-9.4a.091.091 0 0 1 0-.126c5.902-5.887 15.444-5.864 21.317.063 5.893 5.95 5.893 15.632 0 21.58l-15.16 15.302A14.943 14.943 0 0 1 23.229 61"/>
    </g>
    <defs>
        <clipPath id="q6juy683ua">
            <path fill="#fff" transform="translate(.5)" d="M0 0h53v61H0z"/>
        </clipPath>
    </defs>
</svg>
