<svg width="72" height="18" viewBox="0 0 72 18" fill="none" xmlns="http://www.w3.org/2000/svg">
    <path d="M10.632.68c-1.91-.902-4.15-.902-6.073-.03A7.89 7.89 0 0 0 .605 4.71a6.55 6.55 0 0 0-.48 1.939c-.151 1.789.39 3.578.886 5.351a317.728 317.728 0 0 0 1.549 5.397c.21.722.796.722 1.458.39a408.72 408.72 0 0 1 6.794-3.396c2.871-1.429 4.314-3.864 4.284-6.945-.03-3.067-1.563-5.397-4.464-6.765zm-.105 8.974c-.12.331-.286.632-.481.917a3.203 3.203 0 0 1-1.534 1.173c-1.338.481-2.555.225-3.532-.722-.977-.962-1.293-2.18-.842-3.532.18-.526.36-1.052.526-1.579.195-.586.496-1.247.406-1.879-.06-.496-.406-1.413-.962-1.548.255.06.496.135.736.24.226.09.466.196.692.286.21.075.42.166.616.256.421.18.827.376 1.233.601.872.496 1.683 1.112 2.3 1.894.436.556.736 1.203.872 1.894.075.361.12.752.105 1.143 0 .3-.045.586-.135.856z" fill="#FF5519"/>
    <path d="M5.115 11.022c-.977-.962-1.293-2.18-.842-3.532A64.7 64.7 0 0 0 4.8 5.91c.196-.586.496-1.247.406-1.879-.015-.075-.015-.135-.03-.21a2.75 2.75 0 0 0-.36-.872c-.076-.12-.181-.24-.301-.346-.12-.105-.27-.15-.421-.21-.075-.03-.15-.045-.24-.075a17.8 17.8 0 0 0-1.278-.361s-3.999 3.067-2.03 8.824l2.03 6.584 6.283-5.727c-.075.03-.15.075-.24.09-1.308.496-2.526.24-3.503-.707z" fill="url(#iq2r15w9pa)"/>
    <g clip-path="url(#c47sktbhlb)" fill="#FF5519">
        <path d="M24.238 1.72c1.483 0 2.749.508 3.658 1.368h3.54V.195h2.729V16.34c0 .45-.495.567-1.384.567-.83 0-1.345-.098-1.345-.548v-5.785h-3.52c-.91.88-2.195 1.388-3.678 1.388-3.006 0-5.141-2.052-5.141-5.12 0-3.069 2.135-5.121 5.141-5.121zm0 2.247c-1.443 0-2.491 1.134-2.491 2.873 0 1.74 1.048 2.873 2.491 2.873 1.444 0 2.492-1.114 2.492-2.873 0-1.759-1.048-2.873-2.492-2.873zm4.983 4.359h2.215v-2.99h-2.235c.12.469.198.977.198 1.504a5.89 5.89 0 0 1-.178 1.486zM42.905 3.89h-5.477V1.543h6.09c.593 0 1.068.489 1.622 1.192.514.645.731 1.192.731 1.583 0 3.948-3.915 7.153-7.119 8.97-.375.196-.711.099-1.206-.644-.494-.723-.692-1.075-.237-1.368C39.583 9.85 43.24 7.192 43.24 4.28c0-.254-.118-.39-.336-.39zm8.134 12.449c0 .45-.494.567-1.384.567-.83 0-1.345-.098-1.345-.548V.195h2.729V16.34zM56.523 6.117c0 .274.119.41.415.41h6.664c.455 0 .534.372.534 1.095s-.079 1.095-.534 1.095h-7.277c-.494 0-1.186-.47-1.621-.9-.415-.41-.81-1.016-.81-1.446V.45h8.6c.456 0 .535.351.535 1.074 0 .724-.08 1.114-.534 1.114h-5.972v3.48zm-.178 4.398h11.568v6.058c0 .9-.455 1.427-1.443 1.427h-7.712c-.534 0-1.167-.43-1.602-.88-.415-.41-.81-.977-.81-1.348v-5.257zm2.69 4.886c0 .254.118.371.355.371h5.834v-3.03h-6.19v2.659zM65.42 0h2.69v3.322h2.986V5.57H68.11v3.46c0 .468-.514.605-1.345.605-.83 0-1.345-.137-1.345-.606V0z"/>
    </g>
    <defs>
        <linearGradient id="iq2r15w9pa" x1="6.279" y1="3.889" x2="2.332" y2="14.886" gradientUnits="userSpaceOnUse">
            <stop stop-color="#DF3C03"/>
            <stop offset=".953" stop-color="#FF5519"/>
        </linearGradient>
        <clipPath id="c47sktbhlb">
            <path fill="#fff" transform="translate(19.097)" d="M0 0h52v18H0z"/>
        </clipPath>
    </defs>
</svg>
