<svg width="46" height="54" viewBox="0 0 46 54" fill="none" xmlns="http://www.w3.org/2000/svg">
<path d="M31.8953 2.04076C26.1681 -0.665031 19.4487 -0.665031 13.6763 1.95057C8.40003 4.34069 4.11586 8.76015 1.81594 14.1266C1.0042 16.0658 0.553234 18.0049 0.372848 19.9441C-0.0781177 25.3106 1.54536 30.6771 3.03354 35.9985C4.52173 41.4101 6.10011 46.8216 7.67849 52.1881C8.30984 54.3528 10.0686 54.3528 12.0529 53.3607C18.8173 49.8882 25.6269 46.506 32.4365 43.1688C41.0499 38.8847 45.3792 31.579 45.289 22.3342C45.1988 13.1345 40.599 6.14455 31.8953 2.04076ZM31.5797 28.9634C31.2189 29.9555 30.7228 30.8575 30.1366 31.7143C29.0092 33.3378 27.3857 34.5554 25.5367 35.2318C21.5231 36.6749 17.8703 35.9083 14.939 33.0672C12.0078 30.181 11.0607 26.5282 12.4136 22.4695C12.9548 20.8911 13.4959 19.3127 13.992 17.7344C14.5783 15.9756 15.4802 13.9914 15.2096 12.0973C15.0292 10.6091 13.992 7.85822 12.3234 7.45235C13.0901 7.63274 13.8116 7.85822 14.5332 8.1739C15.2096 8.44448 15.9312 8.76015 16.6076 9.03073C17.239 9.25621 17.8703 9.52679 18.4566 9.79737C19.7193 10.3385 20.9369 10.9248 22.1545 11.6012C24.7701 13.0894 27.2053 14.9384 29.0543 17.2834C30.3621 18.952 31.264 20.8911 31.6699 22.9656C31.8953 24.0479 32.0306 25.2204 31.9855 26.3929C31.9855 27.2948 31.8502 28.1517 31.5797 28.9634Z" fill="#FF5519"/>
<path d="M15.3451 33.0673C12.4138 30.1811 11.4668 26.5283 12.8197 22.4696C13.3608 20.8912 13.902 19.3128 14.398 17.7344C14.9843 15.9757 15.8862 13.9914 15.6156 12.0974C15.5706 11.8719 15.5706 11.6915 15.5255 11.466C15.3 10.5641 14.9843 9.66214 14.4431 8.8504C14.2177 8.48963 13.902 8.12886 13.5412 7.81318C13.1804 7.4975 12.7295 7.36221 12.2785 7.18183C12.053 7.09163 11.8275 7.04654 11.557 6.95635C10.2943 6.55048 9.03154 6.1897 7.72374 5.87402C7.72374 5.87402 -4.27194 15.0737 1.63571 32.3457L7.72373 52.098L26.5741 34.9162C26.3486 35.0064 26.1231 35.1417 25.8526 35.1868C21.9292 36.675 18.2763 35.9083 15.3451 33.0673Z" fill="url(#paint0_linear_785_5172)"/>
<defs>
<linearGradient id="paint0_linear_785_5172" x1="18.8357" y1="11.6683" x2="6.99704" y2="44.6568" gradientUnits="userSpaceOnUse">
<stop stop-color="#DF3C03"/>
<stop offset="0.9527" stop-color="#FF5519"/>
</linearGradient>
</defs>
</svg>
