<svg width="19" height="19" viewBox="0 0 19 19" fill="none" xmlns="http://www.w3.org/2000/svg">
    <g clip-path="url(#xe0sb3jg8a)">
        <path d="m17.073 8.442-6.758-6.757c-.563-.563-1.553-.57-2.123 0l-6.75 6.75a1.494 1.494 0 0 0 0 2.115l6.75 6.75c.293.292.675.435 1.058.435.382 0 .765-.143 1.057-.435l6.743-6.743c.592-.57.6-1.515.023-2.115zm-7.816 7.8-6.75-6.75 6.75-6.75 6.75 6.75-6.75 6.75zM6.25 8.75v3h1.5V9.5h3v1.875l2.625-2.625-2.625-2.625V8H7a.752.752 0 0 0-.75.75z" fill="#fff"/>
    </g>
    <defs>
        <clipPath id="xe0sb3jg8a">
            <path fill="#fff" transform="translate(.25 .5)" d="M0 0h18v18H0z"/>
        </clipPath>
    </defs>
</svg>
