<svg width="156" height="120" viewBox="0 0 156 120" fill="none" xmlns="http://www.w3.org/2000/svg">
<path d="M86.8953 2.04076C81.168 -0.665031 74.4486 -0.665031 68.6763 1.95057C63.4 4.34069 59.1158 8.76015 56.8159 14.1266C56.0041 16.0658 55.5532 18.0049 55.3728 19.9441C54.9218 25.3106 56.5453 30.6771 58.0335 35.9985C59.5217 41.4101 61.1 46.8216 62.6784 52.1881C63.3098 54.3528 65.0685 54.3528 67.0528 53.3607C73.8173 49.8882 80.6269 46.506 87.4364 43.1688C96.0499 38.8847 100.379 31.579 100.289 22.3342C100.199 13.1345 95.5989 6.14455 86.8953 2.04076ZM86.5796 28.9634C86.2188 29.9555 85.7228 30.8575 85.1365 31.7143C84.0091 33.3378 82.3856 34.5554 80.5367 35.2318C76.5231 36.6749 72.8703 35.9083 69.939 33.0672C67.0077 30.181 66.0607 26.5282 67.4136 22.4695C67.9547 20.8911 68.4959 19.3127 68.9919 17.7344C69.5782 15.9756 70.4801 13.9914 70.2096 12.0973C70.0292 10.6091 68.9919 7.85822 67.3234 7.45235C68.09 7.63274 68.8116 7.85822 69.5331 8.1739C70.2096 8.44448 70.9311 8.76015 71.6075 9.03073C72.2389 9.25621 72.8703 9.52679 73.4565 9.79737C74.7192 10.3385 75.9368 10.9248 77.1544 11.6012C79.77 13.0894 82.2052 14.9384 84.0542 17.2834C85.362 18.952 86.2639 20.8911 86.6698 22.9656C86.8953 24.0479 87.0306 25.2204 86.9855 26.3929C86.9855 27.2948 86.8502 28.1517 86.5796 28.9634Z" fill="#FF5519"/>
<path d="M70.345 33.0673C67.4138 30.1811 66.4667 26.5283 67.8196 22.4696C68.3608 20.8912 68.9019 19.3128 69.398 17.7344C69.9843 15.9757 70.8862 13.9914 70.6156 12.0974C70.5705 11.8719 70.5705 11.6915 70.5254 11.466C70.2999 10.5641 69.9843 9.66214 69.4431 8.8504C69.2176 8.48963 68.9019 8.12886 68.5412 7.81318C68.1804 7.4975 67.7294 7.36221 67.2785 7.18183C67.053 7.09163 66.8275 7.04654 66.5569 6.95635C65.2942 6.55048 64.0315 6.1897 62.7237 5.87402C62.7237 5.87402 50.728 15.0737 56.6357 32.3457L62.7237 52.098L81.5741 34.9162C81.3486 35.0064 81.1231 35.1417 80.8525 35.1868C76.9291 36.675 73.2763 35.9083 70.345 33.0673Z" fill="url(#paint0_linear_785_5111)"/>
<g clip-path="url(#clip0_785_5111)">
<path d="M15.4241 71.1596C19.8733 71.1596 23.67 72.6841 26.3988 75.2639H37.0177V66.5864H45.2042V115.016C45.2042 116.365 43.7212 116.717 41.0516 116.717C38.5601 116.717 37.0177 116.423 37.0177 115.075V97.7199H26.4582C23.7293 100.358 19.8733 101.883 15.4241 101.883C6.40698 101.883 9.15527e-05 95.7264 9.15527e-05 86.5212C9.15527e-05 77.316 6.40698 71.1596 15.4241 71.1596ZM15.4241 77.9023C11.0935 77.9023 7.94938 81.303 7.94938 86.5212C7.94938 91.7394 11.0935 95.1401 15.4241 95.1401C19.7547 95.1401 22.8988 91.7981 22.8988 86.5212C22.8988 81.2443 19.7547 77.9023 15.4241 77.9023ZM30.3735 90.9772H37.0177V82.0065H30.3142C30.6701 83.4137 30.9074 84.9381 30.9074 86.5212C30.9074 88.1043 30.7294 89.6287 30.3735 90.9772Z" fill="#FF5519"/>
<path d="M71.4249 77.6678H54.9924V70.632H73.2639C75.0436 70.632 76.4673 72.0978 78.1284 74.2085C79.6708 76.1434 80.3233 77.785 80.3233 78.9577C80.3233 90.8013 68.5774 100.417 58.9671 105.87C57.8399 106.456 56.8314 106.163 55.3483 103.935C53.8653 101.765 53.272 100.71 54.6365 99.8306C61.4586 95.5505 72.4334 87.5766 72.4334 78.8404C72.4334 78.0782 72.0774 77.6678 71.4249 77.6678ZM95.8264 115.016C95.8264 116.365 94.3434 116.717 91.6738 116.717C89.1823 116.717 87.6399 116.423 87.6399 115.075V66.5864H95.8264V115.016Z" fill="#FF5519"/>
<path d="M112.279 84.3518C112.279 85.1727 112.635 85.5831 113.525 85.5831H133.516C134.881 85.5831 135.118 86.6971 135.118 88.8665C135.118 91.0359 134.881 92.1499 133.516 92.1499H111.685C110.202 92.1499 108.126 90.7427 106.821 89.4528C105.575 88.2215 104.389 86.4039 104.389 85.114V67.3486H130.194C131.559 67.3486 131.796 68.404 131.796 70.5733C131.796 72.7427 131.559 73.9154 130.194 73.9154H112.279V84.3518ZM111.745 97.544H146.449V115.72C146.449 118.417 145.084 120 142.118 120H118.982C117.381 120 115.482 118.71 114.177 117.362C112.931 116.13 111.745 114.43 111.745 113.316V97.544ZM119.813 112.202C119.813 112.964 120.169 113.316 120.881 113.316H138.381V104.228H119.813V112.202ZM138.974 66.0001H147.042V75.9675H156V82.7101H147.042V93.088C147.042 94.4951 145.5 94.9056 143.008 94.9056C140.516 94.9056 138.974 94.4951 138.974 93.088V66.0001Z" fill="#FF5519"/>
</g>
<defs>
<linearGradient id="paint0_linear_785_5111" x1="73.8357" y1="11.6683" x2="61.997" y2="44.6568" gradientUnits="userSpaceOnUse">
<stop stop-color="#DF3C03"/>
<stop offset="0.9527" stop-color="#FF5519"/>
</linearGradient>
<clipPath id="clip0_785_5111">
<rect width="156" height="53.9999" fill="white" transform="translate(9.15527e-05 66)"/>
</clipPath>
</defs>
</svg>
