<svg width="144" height="34" viewBox="0 0 144 34" fill="none" xmlns="http://www.w3.org/2000/svg">
    <path d="M0 12.118v9.764c0 7.359 6.022 11.922 13.367 11.922 7.295 0 13.367-4.563 13.367-11.922v-9.764c0-7.31-6.072-11.922-13.367-11.922C6.022.196 0 4.808 0 12.118zm5.68-.392c0-4.072 3.623-6.427 7.687-6.427 4.113 0 7.687 2.355 7.687 6.427v10.5c0 4.12-3.574 6.426-7.687 6.426-4.064 0-7.687-2.306-7.687-6.427v-10.5zm24.09 1.03h7.246v5.642H29.77v5.103h7.246V34h5.729V0h-5.729v7.654H29.77v5.102zM49.012 5.838h20.173l-5.24 27.671h6.023L76.333.491H49.012v5.347zM85.979 34h5.729V0h-5.73v34zM98.415 33.51h40.787V16.091H98.415V33.51zm-.49-19.38h31.092V9.027h-25.362V5.593h25.362V.491H97.926V14.13zm6.219 7.065h29.329v7.261h-29.329v-7.261zm29.329-7.065h5.729V9.616H144v-5.2h-4.798V0h-5.729v14.13z" fill="#FF5519"/>
</svg>
